<mxfile host="app.diagrams.net" agent="Mozilla/5.0 (Windows NT 10.0; Win64; x64) AppleWebKit/537.36 (KHTML, like Gecko) Chrome/136.0.0.0 Safari/537.36 Edg/136.0.0.0" version="27.0.3">
  <diagram name="第 1 页" id="UOeoibRbhjmOYeLTfaUz">
    <mxGraphModel dx="2327" dy="826" grid="1" gridSize="10" guides="1" tooltips="1" connect="1" arrows="1" fold="1" page="1" pageScale="1" pageWidth="827" pageHeight="1169" math="0" shadow="0">
      <root>
        <mxCell id="0" />
        <mxCell id="1" parent="0" />
        <mxCell id="f1lzfsfmmCIylhkY9Uj2-1" value="&lt;font style=&quot;font-size: 16px;&quot;&gt;操作日志&lt;/font&gt;" style="rounded=0;whiteSpace=wrap;html=1;" vertex="1" parent="1">
          <mxGeometry x="440" y="380" width="80" height="40" as="geometry" />
        </mxCell>
        <mxCell id="f1lzfsfmmCIylhkY9Uj2-5" value="&lt;font style=&quot;font-size: 16px;&quot;&gt;菜单&lt;/font&gt;" style="rounded=0;whiteSpace=wrap;html=1;" vertex="1" parent="1">
          <mxGeometry x="200" y="480" width="80" height="40" as="geometry" />
        </mxCell>
        <mxCell id="f1lzfsfmmCIylhkY9Uj2-6" value="&lt;font style=&quot;font-size: 16px;&quot;&gt;用户&lt;/font&gt;" style="rounded=0;whiteSpace=wrap;html=1;" vertex="1" parent="1">
          <mxGeometry x="230" y="300" width="80" height="40" as="geometry" />
        </mxCell>
        <mxCell id="f1lzfsfmmCIylhkY9Uj2-11" value="&lt;p class=&quot;MsoNormal&quot;&gt;&lt;font face=&quot;Helvetica&quot; style=&quot;font-size: 16px;&quot;&gt;用户编号&lt;/font&gt;&lt;/p&gt;" style="ellipse;whiteSpace=wrap;html=1;" vertex="1" parent="1">
          <mxGeometry x="40" y="307" width="80" height="40" as="geometry" />
        </mxCell>
        <mxCell id="f1lzfsfmmCIylhkY9Uj2-12" value="&lt;p class=&quot;MsoNormal&quot;&gt;&lt;font face=&quot;Helvetica&quot; style=&quot;font-size: 16px;&quot;&gt;用户昵称&lt;/font&gt;&lt;/p&gt;" style="ellipse;whiteSpace=wrap;html=1;" vertex="1" parent="1">
          <mxGeometry x="220" y="160" width="80" height="40" as="geometry" />
        </mxCell>
        <mxCell id="f1lzfsfmmCIylhkY9Uj2-13" value="&lt;p class=&quot;MsoNormal&quot;&gt;&lt;font face=&quot;Helvetica&quot; style=&quot;font-size: 16px;&quot;&gt;用户名&lt;/font&gt;&lt;/p&gt;" style="ellipse;whiteSpace=wrap;html=1;" vertex="1" parent="1">
          <mxGeometry x="60" y="350" width="80" height="40" as="geometry" />
        </mxCell>
        <mxCell id="f1lzfsfmmCIylhkY9Uj2-14" value="&lt;p class=&quot;MsoNormal&quot;&gt;&lt;font face=&quot;Helvetica&quot; style=&quot;font-size: 16px;&quot;&gt;邮箱&lt;/font&gt;&lt;/p&gt;" style="ellipse;whiteSpace=wrap;html=1;" vertex="1" parent="1">
          <mxGeometry x="414" y="250" width="80" height="40" as="geometry" />
        </mxCell>
        <mxCell id="f1lzfsfmmCIylhkY9Uj2-15" value="&lt;p class=&quot;MsoNormal&quot;&gt;&lt;font face=&quot;Helvetica&quot; style=&quot;font-size: 16px;&quot;&gt;密码&lt;/font&gt;&lt;/p&gt;" style="ellipse;whiteSpace=wrap;html=1;" vertex="1" parent="1">
          <mxGeometry x="80" y="210" width="80" height="40" as="geometry" />
        </mxCell>
        <mxCell id="f1lzfsfmmCIylhkY9Uj2-16" value="&lt;p class=&quot;MsoNormal&quot;&gt;&lt;font style=&quot;font-size: 16px;&quot;&gt;手机号&lt;/font&gt;&lt;/p&gt;" style="ellipse;whiteSpace=wrap;html=1;" vertex="1" parent="1">
          <mxGeometry x="50" y="260" width="80" height="40" as="geometry" />
        </mxCell>
        <mxCell id="f1lzfsfmmCIylhkY9Uj2-17" value="&lt;p class=&quot;MsoNormal&quot;&gt;&lt;font face=&quot;Helvetica&quot; style=&quot;font-size: 16px;&quot;&gt;性别&lt;/font&gt;&lt;/p&gt;" style="ellipse;whiteSpace=wrap;html=1;" vertex="1" parent="1">
          <mxGeometry x="390" y="200" width="80" height="40" as="geometry" />
        </mxCell>
        <mxCell id="f1lzfsfmmCIylhkY9Uj2-18" value="&lt;p class=&quot;MsoNormal&quot;&gt;&lt;font style=&quot;font-size: 16px;&quot;&gt;头像&lt;/font&gt;&lt;/p&gt;" style="ellipse;whiteSpace=wrap;html=1;" vertex="1" parent="1">
          <mxGeometry x="130" y="170" width="80" height="40" as="geometry" />
        </mxCell>
        <mxCell id="f1lzfsfmmCIylhkY9Uj2-19" value="&lt;p class=&quot;MsoNormal&quot;&gt;&lt;font face=&quot;Helvetica&quot; style=&quot;font-size: 16px;&quot;&gt;创建时间&lt;/font&gt;&lt;/p&gt;" style="ellipse;whiteSpace=wrap;html=1;" vertex="1" parent="1">
          <mxGeometry x="310" y="170" width="90" height="40" as="geometry" />
        </mxCell>
        <mxCell id="f1lzfsfmmCIylhkY9Uj2-20" value="" style="endArrow=none;html=1;rounded=0;exitX=1;exitY=0;exitDx=0;exitDy=0;entryX=0;entryY=0.75;entryDx=0;entryDy=0;" edge="1" parent="1" source="f1lzfsfmmCIylhkY9Uj2-13" target="f1lzfsfmmCIylhkY9Uj2-6">
          <mxGeometry width="50" height="50" relative="1" as="geometry">
            <mxPoint x="160" y="390" as="sourcePoint" />
            <mxPoint x="210" y="340" as="targetPoint" />
          </mxGeometry>
        </mxCell>
        <mxCell id="f1lzfsfmmCIylhkY9Uj2-21" value="" style="endArrow=none;html=1;rounded=0;entryX=1;entryY=0.25;entryDx=0;entryDy=0;" edge="1" parent="1" target="f1lzfsfmmCIylhkY9Uj2-6">
          <mxGeometry width="50" height="50" relative="1" as="geometry">
            <mxPoint x="413" y="270" as="sourcePoint" />
            <mxPoint x="250" y="350" as="targetPoint" />
          </mxGeometry>
        </mxCell>
        <mxCell id="f1lzfsfmmCIylhkY9Uj2-22" value="" style="endArrow=none;html=1;rounded=0;exitX=0.018;exitY=0.75;exitDx=0;exitDy=0;exitPerimeter=0;entryX=0.91;entryY=-0.03;entryDx=0;entryDy=0;entryPerimeter=0;" edge="1" parent="1" source="f1lzfsfmmCIylhkY9Uj2-17" target="f1lzfsfmmCIylhkY9Uj2-6">
          <mxGeometry width="50" height="50" relative="1" as="geometry">
            <mxPoint x="280" y="435" as="sourcePoint" />
            <mxPoint x="260" y="350" as="targetPoint" />
          </mxGeometry>
        </mxCell>
        <mxCell id="f1lzfsfmmCIylhkY9Uj2-23" value="" style="endArrow=none;html=1;rounded=0;exitX=1;exitY=0.5;exitDx=0;exitDy=0;entryX=0;entryY=0.5;entryDx=0;entryDy=0;" edge="1" parent="1" source="f1lzfsfmmCIylhkY9Uj2-11" target="f1lzfsfmmCIylhkY9Uj2-6">
          <mxGeometry width="50" height="50" relative="1" as="geometry">
            <mxPoint x="148" y="356" as="sourcePoint" />
            <mxPoint x="210" y="310" as="targetPoint" />
          </mxGeometry>
        </mxCell>
        <mxCell id="f1lzfsfmmCIylhkY9Uj2-24" value="" style="endArrow=none;html=1;rounded=0;entryX=0.25;entryY=0;entryDx=0;entryDy=0;exitX=1;exitY=0.5;exitDx=0;exitDy=0;" edge="1" parent="1" source="f1lzfsfmmCIylhkY9Uj2-16" target="f1lzfsfmmCIylhkY9Uj2-6">
          <mxGeometry width="50" height="50" relative="1" as="geometry">
            <mxPoint x="100" y="280" as="sourcePoint" />
            <mxPoint x="220" y="280" as="targetPoint" />
          </mxGeometry>
        </mxCell>
        <mxCell id="f1lzfsfmmCIylhkY9Uj2-25" value="" style="endArrow=none;html=1;rounded=0;exitX=1;exitY=1;exitDx=0;exitDy=0;entryX=0.25;entryY=0;entryDx=0;entryDy=0;" edge="1" parent="1" source="f1lzfsfmmCIylhkY9Uj2-15" target="f1lzfsfmmCIylhkY9Uj2-6">
          <mxGeometry width="50" height="50" relative="1" as="geometry">
            <mxPoint x="160" y="250" as="sourcePoint" />
            <mxPoint x="250" y="330" as="targetPoint" />
          </mxGeometry>
        </mxCell>
        <mxCell id="f1lzfsfmmCIylhkY9Uj2-26" value="" style="endArrow=none;html=1;rounded=0;exitX=1;exitY=1;exitDx=0;exitDy=0;entryX=0.25;entryY=0;entryDx=0;entryDy=0;" edge="1" parent="1" target="f1lzfsfmmCIylhkY9Uj2-6" source="f1lzfsfmmCIylhkY9Uj2-18">
          <mxGeometry width="50" height="50" relative="1" as="geometry">
            <mxPoint x="200" y="214" as="sourcePoint" />
            <mxPoint x="272" y="270" as="targetPoint" />
          </mxGeometry>
        </mxCell>
        <mxCell id="f1lzfsfmmCIylhkY9Uj2-27" value="" style="endArrow=none;html=1;rounded=0;exitX=0.5;exitY=1;exitDx=0;exitDy=0;entryX=0.5;entryY=0;entryDx=0;entryDy=0;" edge="1" parent="1" target="f1lzfsfmmCIylhkY9Uj2-6" source="f1lzfsfmmCIylhkY9Uj2-12">
          <mxGeometry width="50" height="50" relative="1" as="geometry">
            <mxPoint x="245" y="190" as="sourcePoint" />
            <mxPoint x="275" y="286" as="targetPoint" />
          </mxGeometry>
        </mxCell>
        <mxCell id="f1lzfsfmmCIylhkY9Uj2-28" value="" style="endArrow=none;html=1;rounded=0;exitX=0.293;exitY=1.06;exitDx=0;exitDy=0;entryX=0.75;entryY=0;entryDx=0;entryDy=0;exitPerimeter=0;" edge="1" parent="1" source="f1lzfsfmmCIylhkY9Uj2-19" target="f1lzfsfmmCIylhkY9Uj2-6">
          <mxGeometry width="50" height="50" relative="1" as="geometry">
            <mxPoint x="295" y="180" as="sourcePoint" />
            <mxPoint x="290" y="300" as="targetPoint" />
          </mxGeometry>
        </mxCell>
        <mxCell id="f1lzfsfmmCIylhkY9Uj2-83" value="&lt;font style=&quot;font-size: 16px;&quot;&gt;管理&lt;/font&gt;" style="rhombus;whiteSpace=wrap;html=1;" vertex="1" parent="1">
          <mxGeometry x="150" y="390" width="80" height="60" as="geometry" />
        </mxCell>
        <mxCell id="f1lzfsfmmCIylhkY9Uj2-85" value="&lt;font style=&quot;font-size: 16px;&quot;&gt;关联&lt;/font&gt;" style="rhombus;whiteSpace=wrap;html=1;" vertex="1" parent="1">
          <mxGeometry x="334" y="330" width="80" height="60" as="geometry" />
        </mxCell>
        <mxCell id="f1lzfsfmmCIylhkY9Uj2-87" value="" style="endArrow=none;html=1;rounded=0;entryX=1;entryY=1;entryDx=0;entryDy=0;exitX=0.5;exitY=0;exitDx=0;exitDy=0;" edge="1" parent="1" source="f1lzfsfmmCIylhkY9Uj2-85" target="f1lzfsfmmCIylhkY9Uj2-6">
          <mxGeometry width="50" height="50" relative="1" as="geometry">
            <mxPoint x="180" y="510" as="sourcePoint" />
            <mxPoint x="230" y="460" as="targetPoint" />
          </mxGeometry>
        </mxCell>
        <mxCell id="f1lzfsfmmCIylhkY9Uj2-88" value="" style="endArrow=none;html=1;rounded=0;exitX=0.5;exitY=0;exitDx=0;exitDy=0;" edge="1" parent="1" source="f1lzfsfmmCIylhkY9Uj2-83">
          <mxGeometry width="50" height="50" relative="1" as="geometry">
            <mxPoint x="180" y="510" as="sourcePoint" />
            <mxPoint x="230" y="340" as="targetPoint" />
          </mxGeometry>
        </mxCell>
        <mxCell id="f1lzfsfmmCIylhkY9Uj2-89" value="" style="endArrow=none;html=1;rounded=0;entryX=0.5;entryY=1;entryDx=0;entryDy=0;exitX=1;exitY=0;exitDx=0;exitDy=0;" edge="1" parent="1" source="f1lzfsfmmCIylhkY9Uj2-5" target="f1lzfsfmmCIylhkY9Uj2-83">
          <mxGeometry width="50" height="50" relative="1" as="geometry">
            <mxPoint x="80" y="540" as="sourcePoint" />
            <mxPoint x="130" y="490" as="targetPoint" />
          </mxGeometry>
        </mxCell>
        <mxCell id="f1lzfsfmmCIylhkY9Uj2-91" value="" style="endArrow=none;html=1;rounded=0;entryX=0.5;entryY=1;entryDx=0;entryDy=0;exitX=0;exitY=0;exitDx=0;exitDy=0;" edge="1" parent="1" source="f1lzfsfmmCIylhkY9Uj2-1" target="f1lzfsfmmCIylhkY9Uj2-85">
          <mxGeometry width="50" height="50" relative="1" as="geometry">
            <mxPoint x="130" y="635" as="sourcePoint" />
            <mxPoint x="180" y="585" as="targetPoint" />
          </mxGeometry>
        </mxCell>
        <mxCell id="f1lzfsfmmCIylhkY9Uj2-98" value="&lt;p class=&quot;MsoNormal&quot;&gt;&lt;font face=&quot;Helvetica&quot; style=&quot;font-size: 16px;&quot;&gt;用户编号&lt;/font&gt;&lt;/p&gt;" style="ellipse;whiteSpace=wrap;html=1;" vertex="1" parent="1">
          <mxGeometry x="550" y="383" width="80" height="40" as="geometry" />
        </mxCell>
        <mxCell id="f1lzfsfmmCIylhkY9Uj2-99" value="&lt;p class=&quot;MsoNormal&quot;&gt;&lt;font face=&quot;Helvetica&quot; style=&quot;font-size: 16px;&quot;&gt;操作类型&lt;/font&gt;&lt;/p&gt;" style="ellipse;whiteSpace=wrap;html=1;" vertex="1" parent="1">
          <mxGeometry x="540" y="310" width="80" height="40" as="geometry" />
        </mxCell>
        <mxCell id="f1lzfsfmmCIylhkY9Uj2-100" value="&lt;p class=&quot;MsoNormal&quot;&gt;&lt;span style=&quot;color: rgb(0, 0, 0);&quot;&gt;&lt;font face=&quot;Helvetica&quot; style=&quot;font-size: 16px;&quot;&gt;操作时间&lt;/font&gt;&lt;/span&gt;&lt;/p&gt;" style="ellipse;whiteSpace=wrap;html=1;" vertex="1" parent="1">
          <mxGeometry x="414" y="455" width="80" height="45" as="geometry" />
        </mxCell>
        <mxCell id="f1lzfsfmmCIylhkY9Uj2-101" value="&lt;p class=&quot;MsoNormal&quot;&gt;&lt;font style=&quot;font-size: 16px;&quot;&gt;操作状态&lt;/font&gt;&lt;/p&gt;" style="ellipse;whiteSpace=wrap;html=1;" vertex="1" parent="1">
          <mxGeometry x="530" y="450" width="80" height="40" as="geometry" />
        </mxCell>
        <mxCell id="f1lzfsfmmCIylhkY9Uj2-102" value="&lt;p class=&quot;MsoNormal&quot;&gt;&lt;font face=&quot;Helvetica&quot; style=&quot;font-size: 16px;&quot;&gt;日志序号&lt;/font&gt;&lt;/p&gt;" style="ellipse;whiteSpace=wrap;html=1;" vertex="1" parent="1">
          <mxGeometry x="460" y="290" width="80" height="40" as="geometry" />
        </mxCell>
        <mxCell id="f1lzfsfmmCIylhkY9Uj2-103" value="&lt;p class=&quot;MsoNormal&quot;&gt;&lt;font face=&quot;Helvetica&quot; style=&quot;font-size: 16px;&quot;&gt;菜单图标&lt;/font&gt;&lt;/p&gt;" style="ellipse;whiteSpace=wrap;html=1;" vertex="1" parent="1">
          <mxGeometry x="-10" y="630" width="80" height="40" as="geometry" />
        </mxCell>
        <mxCell id="f1lzfsfmmCIylhkY9Uj2-104" value="&lt;p class=&quot;MsoNormal&quot;&gt;&lt;font style=&quot;font-size: 16px;&quot;&gt;菜单状态&lt;/font&gt;&lt;/p&gt;" style="ellipse;whiteSpace=wrap;html=1;" vertex="1" parent="1">
          <mxGeometry x="-100" y="610" width="80" height="40" as="geometry" />
        </mxCell>
        <mxCell id="f1lzfsfmmCIylhkY9Uj2-105" value="&lt;p class=&quot;MsoNormal&quot;&gt;&lt;font style=&quot;font-size: 16px;&quot;&gt;菜单顺序&lt;/font&gt;&lt;/p&gt;" style="ellipse;whiteSpace=wrap;html=1;" vertex="1" parent="1">
          <mxGeometry x="-120" y="530" width="80" height="40" as="geometry" />
        </mxCell>
        <mxCell id="f1lzfsfmmCIylhkY9Uj2-106" value="&lt;p class=&quot;MsoNormal&quot;&gt;&lt;font face=&quot;Helvetica&quot; style=&quot;font-size: 16px;&quot;&gt;菜单名字&lt;/font&gt;&lt;/p&gt;" style="ellipse;whiteSpace=wrap;html=1;" vertex="1" parent="1">
          <mxGeometry x="-110" y="460" width="80" height="40" as="geometry" />
        </mxCell>
        <mxCell id="f1lzfsfmmCIylhkY9Uj2-107" value="&lt;p class=&quot;MsoNormal&quot;&gt;&lt;font face=&quot;Helvetica&quot; style=&quot;font-size: 16px;&quot;&gt;菜单序号&lt;/font&gt;&lt;/p&gt;" style="ellipse;whiteSpace=wrap;html=1;" vertex="1" parent="1">
          <mxGeometry x="255" y="400" width="80" height="40" as="geometry" />
        </mxCell>
        <mxCell id="f1lzfsfmmCIylhkY9Uj2-108" value="" style="endArrow=none;html=1;rounded=0;exitX=0.25;exitY=0;exitDx=0;exitDy=0;entryX=0;entryY=1;entryDx=0;entryDy=0;" edge="1" parent="1" source="f1lzfsfmmCIylhkY9Uj2-1" target="f1lzfsfmmCIylhkY9Uj2-102">
          <mxGeometry width="50" height="50" relative="1" as="geometry">
            <mxPoint x="520" y="520" as="sourcePoint" />
            <mxPoint x="500" y="520" as="targetPoint" />
          </mxGeometry>
        </mxCell>
        <mxCell id="f1lzfsfmmCIylhkY9Uj2-109" value="" style="endArrow=none;html=1;rounded=0;exitX=0.625;exitY=0;exitDx=0;exitDy=0;entryX=0;entryY=0.5;entryDx=0;entryDy=0;exitPerimeter=0;" edge="1" parent="1" source="f1lzfsfmmCIylhkY9Uj2-1" target="f1lzfsfmmCIylhkY9Uj2-99">
          <mxGeometry width="50" height="50" relative="1" as="geometry">
            <mxPoint x="460" y="580" as="sourcePoint" />
            <mxPoint x="472" y="509" as="targetPoint" />
          </mxGeometry>
        </mxCell>
        <mxCell id="f1lzfsfmmCIylhkY9Uj2-110" value="" style="endArrow=none;html=1;rounded=0;exitX=1;exitY=0.25;exitDx=0;exitDy=0;entryX=0;entryY=0.5;entryDx=0;entryDy=0;" edge="1" parent="1" source="f1lzfsfmmCIylhkY9Uj2-1" target="f1lzfsfmmCIylhkY9Uj2-98">
          <mxGeometry width="50" height="50" relative="1" as="geometry">
            <mxPoint x="490" y="580" as="sourcePoint" />
            <mxPoint x="535" y="550" as="targetPoint" />
          </mxGeometry>
        </mxCell>
        <mxCell id="f1lzfsfmmCIylhkY9Uj2-111" value="" style="endArrow=none;html=1;rounded=0;entryX=0;entryY=0;entryDx=0;entryDy=0;" edge="1" parent="1" target="f1lzfsfmmCIylhkY9Uj2-101">
          <mxGeometry width="50" height="50" relative="1" as="geometry">
            <mxPoint x="508" y="420" as="sourcePoint" />
            <mxPoint x="480" y="790" as="targetPoint" />
          </mxGeometry>
        </mxCell>
        <mxCell id="f1lzfsfmmCIylhkY9Uj2-112" value="" style="endArrow=none;html=1;rounded=0;exitX=0.365;exitY=1.01;exitDx=0;exitDy=0;entryX=0.5;entryY=0;entryDx=0;entryDy=0;exitPerimeter=0;" edge="1" parent="1" source="f1lzfsfmmCIylhkY9Uj2-1" target="f1lzfsfmmCIylhkY9Uj2-100">
          <mxGeometry width="50" height="50" relative="1" as="geometry">
            <mxPoint x="480" y="620" as="sourcePoint" />
            <mxPoint x="540" y="800" as="targetPoint" />
          </mxGeometry>
        </mxCell>
        <mxCell id="f1lzfsfmmCIylhkY9Uj2-119" value="" style="endArrow=none;html=1;rounded=0;entryX=1;entryY=1;entryDx=0;entryDy=0;exitX=0.5;exitY=0;exitDx=0;exitDy=0;" edge="1" parent="1" source="f1lzfsfmmCIylhkY9Uj2-5" target="f1lzfsfmmCIylhkY9Uj2-107">
          <mxGeometry width="50" height="50" relative="1" as="geometry">
            <mxPoint x="520" y="520" as="sourcePoint" />
            <mxPoint x="570" y="470" as="targetPoint" />
          </mxGeometry>
        </mxCell>
        <mxCell id="f1lzfsfmmCIylhkY9Uj2-120" value="" style="endArrow=none;html=1;rounded=0;entryX=1;entryY=0.5;entryDx=0;entryDy=0;exitX=0;exitY=0;exitDx=0;exitDy=0;" edge="1" parent="1" source="f1lzfsfmmCIylhkY9Uj2-5" target="f1lzfsfmmCIylhkY9Uj2-106">
          <mxGeometry width="50" height="50" relative="1" as="geometry">
            <mxPoint x="80" y="540" as="sourcePoint" />
            <mxPoint x="48" y="454" as="targetPoint" />
          </mxGeometry>
        </mxCell>
        <mxCell id="f1lzfsfmmCIylhkY9Uj2-121" value="" style="endArrow=none;html=1;rounded=0;entryX=1;entryY=0;entryDx=0;entryDy=0;exitX=0;exitY=0.5;exitDx=0;exitDy=0;" edge="1" parent="1" source="f1lzfsfmmCIylhkY9Uj2-5" target="f1lzfsfmmCIylhkY9Uj2-105">
          <mxGeometry width="50" height="50" relative="1" as="geometry">
            <mxPoint x="20" y="550" as="sourcePoint" />
            <mxPoint x="-10" y="510" as="targetPoint" />
          </mxGeometry>
        </mxCell>
        <mxCell id="f1lzfsfmmCIylhkY9Uj2-122" value="" style="endArrow=none;html=1;rounded=0;entryX=0.5;entryY=0;entryDx=0;entryDy=0;exitX=0;exitY=1;exitDx=0;exitDy=0;" edge="1" parent="1" source="f1lzfsfmmCIylhkY9Uj2-5" target="f1lzfsfmmCIylhkY9Uj2-104">
          <mxGeometry width="50" height="50" relative="1" as="geometry">
            <mxPoint x="30" y="580" as="sourcePoint" />
            <mxPoint x="-32" y="571" as="targetPoint" />
          </mxGeometry>
        </mxCell>
        <mxCell id="f1lzfsfmmCIylhkY9Uj2-123" value="" style="endArrow=none;html=1;rounded=0;entryX=0.5;entryY=0;entryDx=0;entryDy=0;exitX=0.5;exitY=1;exitDx=0;exitDy=0;" edge="1" parent="1" source="f1lzfsfmmCIylhkY9Uj2-5" target="f1lzfsfmmCIylhkY9Uj2-103">
          <mxGeometry width="50" height="50" relative="1" as="geometry">
            <mxPoint x="40" y="580" as="sourcePoint" />
            <mxPoint x="-30" y="640" as="targetPoint" />
          </mxGeometry>
        </mxCell>
        <mxCell id="f1lzfsfmmCIylhkY9Uj2-130" value="&lt;span style=&quot;font-size: 16px;&quot;&gt;N&lt;/span&gt;" style="text;html=1;align=center;verticalAlign=middle;whiteSpace=wrap;rounded=0;" vertex="1" parent="1">
          <mxGeometry x="379" y="388" width="60" height="30" as="geometry" />
        </mxCell>
        <mxCell id="f1lzfsfmmCIylhkY9Uj2-131" value="&lt;span style=&quot;font-size: 16px;&quot;&gt;1&lt;/span&gt;" style="text;html=1;align=center;verticalAlign=middle;whiteSpace=wrap;rounded=0;" vertex="1" parent="1">
          <mxGeometry x="310" y="307" width="60" height="30" as="geometry" />
        </mxCell>
        <mxCell id="f1lzfsfmmCIylhkY9Uj2-134" value="&lt;span style=&quot;font-size: 16px;&quot;&gt;N&lt;/span&gt;" style="text;html=1;align=center;verticalAlign=middle;whiteSpace=wrap;rounded=0;" vertex="1" parent="1">
          <mxGeometry x="195" y="360" width="60" height="30" as="geometry" />
        </mxCell>
        <mxCell id="f1lzfsfmmCIylhkY9Uj2-135" value="&lt;span style=&quot;font-size: 16px;&quot;&gt;N&lt;/span&gt;" style="text;html=1;align=center;verticalAlign=middle;whiteSpace=wrap;rounded=0;" vertex="1" parent="1">
          <mxGeometry x="80" y="475" width="60" height="30" as="geometry" />
        </mxCell>
      </root>
    </mxGraphModel>
  </diagram>
</mxfile>
